<svg xmlns="http://www.w3.org/2000/svg" width="296" height="296" viewBox="0 0 296 296"><title>Asset 2</title><g id="Layer_2" data-name="Layer 2"><g id="clock"><path d="M148,0A148,148,0,1,0,296,148,148,148,0,0,0,148,0Zm84.2,92.6,25.6-14.8a5.9,5.9,0,1,1,5.9,10.3l-25.6,14.8a5.9,5.9,0,1,1-5.9-10.3ZM142.1,17.8a5.9,5.9,0,1,1,11.8,0V47.4a5.9,5.9,0,1,1-11.8,0ZM79.9,30.1A5.9,5.9,0,0,1,88,32.2l14.8,25.6a5.9,5.9,0,1,1-10.3,5.9L77.8,38.2A5.9,5.9,0,0,1,79.9,30.1ZM11.8,148a5.9,5.9,0,0,1,5.9-5.9H47.4a5.9,5.9,0,1,1,0,11.8H17.8A5.9,5.9,0,0,1,11.8,148Zm52,55.4L38.2,218.2A5.9,5.9,0,1,1,32.2,208l25.6-14.8a5.9,5.9,0,1,1,5.9,10.2ZM66,100.6a5.9,5.9,0,0,1-8.1,2.2L32.3,88a5.9,5.9,0,1,1,5.9-10.3L63.8,92.5A5.9,5.9,0,0,1,66,100.6Zm36.8,137.5L88,263.7a5.9,5.9,0,1,1-10.2-5.9l14.8-25.6a5.9,5.9,0,1,1,10.3,5.9Zm51.1,40.1a5.9,5.9,0,1,1-11.8,0V248.6a5.9,5.9,0,1,1,11.8,0ZM216,265.9a5.9,5.9,0,0,1-8.1-2.2l-14.8-25.6a5.9,5.9,0,1,1,10.3-5.9l14.8,25.6A5.9,5.9,0,0,1,216,265.9Zm2.3-227.7L203.5,63.8a5.9,5.9,0,1,1-10.3-5.9l14.8-25.6a5.9,5.9,0,1,1,10.2,5.9Zm47.6,177.9a5.9,5.9,0,0,1-8.1,2.2l-25.6-14.8a5.9,5.9,0,1,1,5.9-10.3L263.7,208A5.9,5.9,0,0,1,265.9,216.1ZM278.2,154H248.6a5.9,5.9,0,1,1,0-11.8h29.6a5.9,5.9,0,0,1,0,11.8Z" fill="#fff"/></g></g></svg>